<?xml version="1.0" encoding="utf-8"?>
<!-- Generator: Adobe Illustrator 18.1.1, SVG Export Plug-In . SVG Version: 6.00 Build 0)  -->
<svg version="1.1" id="Layer_1" xmlns="http://www.w3.org/2000/svg" xmlns:xlink="http://www.w3.org/1999/xlink" x="0px" y="0px"
	 viewBox="0 0 195.9 73.9" enable-background="new 0 0 195.9 73.9" xml:space="preserve">
<g>
	<path fill="#FFFFFF" d="M13.7,73.9C5.3,73.9,0,67.6,0,59.2V14.8C0,6.5,5.3,0,13.7,0c8.4,0,13.2,6.1,13.2,14.4v11.8H20V13.7
		c0-3.6-2.2-6.3-6-6.3c-4.1,0-6.3,2.7-6.3,6.1v46.8c0,3.6,2.2,6.1,6.3,6.1c3.9,0,6-2.6,6-6.3V47.6h6.8v11.9
		C26.8,67.8,22.1,73.9,13.7,73.9z"/>
	<path fill="#FFFFFF" d="M38.9,72.9V1.1h7.8v64.4h14.5v7.4H38.9z"/>
	<path fill="#FFFFFF" d="M72.1,72.9V1.1H80v71.8H72.1z"/>
	<path fill="#FFFFFF" d="M119.1,73.9c-2,0-3.9-0.8-5.1-2c-2.2,1.4-4.7,2-7.5,2c-8.4,0-13.8-6.4-13.8-14.8V14.8
		C92.7,6.4,98.1,0,106.5,0c8.4,0,13.8,6.4,13.8,14.8v45c0,2.7-0.6,5.3-1.7,7c0.9,0.9,2.5,1.4,4.7,1.4v4.7
		C122.3,73.6,121.2,73.9,119.1,73.9z M112.6,13.6c0-3.2-2-6.1-6-6.1c-4,0-6,2.9-6,6.1v46.8c0,3.3,2,6.1,6,6.1c1.4,0,2.6-0.3,3.6-1
		l-2.5-2.3l5-4.4V13.6z"/>
	<path fill="#FFFFFF" d="M146.4,73.9c-7.9,0-13.6-5.6-13.6-14.4V1.1h7.8v58.9c0,4.4,1.9,6.7,5.9,6.7c4,0,5.9-2.3,5.9-6.7V1.1h7.5
		v58.4C160,68.3,154.2,73.9,146.4,73.9z"/>
	<path fill="#FFFFFF" d="M173.1,72.9V1.1h22.9v7.2h-15.1v23.9h10.9v7h-10.9v26.4h15.1v7.2H173.1z"/>
</g>
</svg>
